RobotoFlex-opsz24-wght100-wdth151.ufo
<glyph name="quotedbl" format="2">
  <advance width="613"/>
  <unicode hex="0022"/>
  <outline>
    <contour>
      <point x="128.04307692307688" y="1104.4446153846152" type="line"/>
      <point x="120.55076923076922" y="1361.7430769230773" type="line"/>
      <point x="120.55076923076922" y="1456.0" type="line"/>
      <point x="202.91999999999996" y="1456.0" type="line"/>
      <point x="202.91999999999996" y="1361.7430769230773" type="line"/>
      <point x="196.42769230769233" y="1104.4446153846152" type="line"/>
    </contour>
    <contour>
      <point x="415.8415384615384" y="1104.4446153846152" type="line"/>
      <point x="408.34923076923076" y="1361.7430769230773" type="line"/>
      <point x="408.34923076923076" y="1456.0" type="line"/>
      <point x="491.98153846153855" y="1456.0" type="line"/>
      <point x="491.98153846153855" y="1361.7430769230773" type="line"/>
      <point x="485.4892307692308" y="1104.4446153846152" type="line"/>
    </contour>
  </outline>
</glyph>
<glyph name="numbersign" format="2">
  <advance width="1522"/>
  <unicode hex="0023"/>
  <outline>
    <contour>
      <point x="189.99692307692303" y="-20.0" type="line"/>
      <point x="744.6492307692309" y="1454.2830769230768" type="line"/>
      <point x="809.8030769230768" y="1454.2830769230768" type="line"/>
      <point x="254.22769230769225" y="-20.0" type="line"/>
    </contour>
    <contour>
      <point x="736.523076923077" y="-20.0" type="line"/>
      <point x="1292.3230769230772" y="1454.2830769230768" type="line"/>
      <point x="1358.323076923077" y="1454.2830769230768" type="line"/>
      <point x="802.6769230769231" y="-20.0" type="line"/>
    </contour>
    <contour>
      <point x="6.815384615384628" y="447.3876923076923" type="line"/>
      <point x="6.815384615384628" y="513.8307692307693" type="line"/>
      <point x="1429.3384615384614" y="513.8307692307693" type="line"/>
      <point x="1429.3384615384614" y="447.3876923076923" type="line"/>
    </contour>
    <contour>
      <point x="119.05846153846153" y="919.9907692307694" type="line"/>
      <point x="119.05846153846153" y="986.4338461538462" type="line"/>
      <point x="1539.6584615384613" y="986.4338461538462" type="line"/>
      <point x="1539.6584615384613" y="919.9907692307694" type="line"/>
    </contour>
  </outline>
</glyph>
<glyph name="dollar" format="2">
  <advance width="1169"/>
  <unicode hex="0024"/>
  <outline>
    <contour>
      <point x="91.2276923076923" y="438.2307692307692" type="qcurve" smooth="yes"/>
      <point x="90.99692307692307" y="452.15384615384625" type="line"/>
      <point x="163.38307692307697" y="452.15384615384625" type="line"/>
      <point x="163.53692307692313" y="438.9230769230769" type="line" smooth="yes"/>
      <point x="161.95076923076928" y="271.0"/>
      <point x="394.58461538461535" y="78.18615384615384"/>
      <point x="606.9230769230769" y="78.26307692307692" type="qcurve" smooth="yes"/>
      <point x="817.5846153846154" y="78.34"/>
      <point x="1040.0615384615385" y="277.6153846153846"/>
      <point x="1039.1384615384616" y="390.4615384615384" type="qcurve" smooth="yes"/>
      <point x="1038.215384615385" y="533.7707692307692"/>
      <point x="887.5276923076922" y="639.8353846153846"/>
      <point x="594.3384615384615" y="714.2153846153848" type="qcurve" smooth="yes"/>
      <point x="334.7692307692307" y="779.9769230769231"/>
      <point x="121.78307692307692" y="913.153846153846"/>
      <point x="121.78307692307692" y="1075.923076923077" type="qcurve" smooth="yes"/>
      <point x="121.78307692307692" y="1233.7692307692305"/>
      <point x="356.4615384615385" y="1456.0"/>
      <point x="593.3076923076923" y="1456.0" type="qcurve" smooth="yes"/>
      <point x="819.8461538461537" y="1456.0"/>
      <point x="1077.0184615384617" y="1204.1538461538466"/>
      <point x="1077.9415384615386" y="1030.7692307692307" type="qcurve" smooth="yes"/>
      <point x="1078.0953846153848" y="1016.7692307692307" type="line"/>
      <point x="1001.4061538461539" y="1016.7692307692307" type="line"/>
      <point x="1001.2523076923077" y="1030.3846153846152" type="line" smooth="yes"/>
      <point x="1000.3292307692308" y="1179.5938461538462"/>
      <point x="791.8861538461538" y="1379.2923076923075"/>
      <point x="593.2307692307692" y="1379.2923076923075" type="qcurve" smooth="yes"/>
      <point x="389.59230769230766" y="1379.2923076923075"/>
      <point x="199.70615384615385" y="1214.4476923076925"/>
      <point x="199.70615384615385" y="1075.923076923077" type="qcurve" smooth="yes"/>
      <point x="199.70615384615385" y="950.0676923076923"/>
      <point x="376.9738461538462" y="839.1876923076923"/>
      <point x="650.4923076923077" y="784.1230769230767" type="qcurve" smooth="yes"/>
      <point x="891.1846153846154" y="735.8723076923077"/>
      <point x="1111.8646153846155" y="591.6923076923076"/>
      <point x="1111.8646153846155" y="430.1538461538462" type="qcurve" smooth="yes"/>
      <point x="1111.8646153846155" y="239.23076923076923"/>
      <point x="848.4615384615382" y="3.692307692307692"/>
      <point x="606.9230769230769" y="3.692307692307692" type="qcurve" smooth="yes"/>
      <point x="366.15384615384625" y="3.692307692307692"/>
      <point x="93.2276923076923" y="240.76923076923075"/>
    </contour>
    <contour>
      <point x="568.4923076923077" y="-131.53846153846155" type="line"/>
      <point x="568.4923076923077" y="700.3076923076925" type="line"/>
      <point x="634.0461538461536" y="700.3076923076925" type="line"/>
      <point x="634.0461538461536" y="63.307692307692314" type="line"/>
      <point x="633.1230769230771" y="53.76923076923077" type="line"/>
      <point x="633.1230769230771" y="-131.53846153846155" type="line"/>
    </contour>
    <contour>
      <point x="566.6461538461539" y="700.3076923076925" type="line"/>
      <point x="566.6461538461539" y="1383.4615384615386" type="line"/>
      <point x="566.6461538461538" y="1393.0000000000002" type="line"/>
      <point x="566.6461538461538" y="1624.4615384615386" type="line"/>
      <point x="631.276923076923" y="1624.4615384615386" type="line"/>
      <point x="631.276923076923" y="700.3076923076925" type="line"/>
    </contour>
  </outline>
</glyph>
<glyph name="ampersand" format="2">
  <advance width="1287"/>
  <unicode hex="0026"/>
  <outline>
    <contour>
      <point x="82.3076923076923" y="376.46153846153845" type="qcurve" smooth="yes"/>
      <point x="82.3076923076923" y="514.9676923076925"/>
      <point x="238.0769230769231" y="706.6553846153846"/>
      <point x="446.9553846153846" y="816.0707692307692" type="qcurve" smooth="yes"/>
      <point x="618.2476923076923" y="906.6646153846154" type="line" smooth="yes"/>
      <point x="714.0215384615382" y="958.5046153846156"/>
      <point x="819.8815384615384" y="1087.896923076923"/>
      <point x="819.8815384615384" y="1179.0861538461538" type="qcurve" smooth="yes"/>
      <point x="819.8815384615384" y="1280.2630769230766"/>
      <point x="687.6661538461537" y="1424.0523076923077"/>
      <point x="573.34" y="1424.0523076923077" type="qcurve" smooth="yes"/>
      <point x="452.87692307692305" y="1424.0523076923077"/>
      <point x="305.9015384615385" y="1268.8784615384616"/>
      <point x="305.9015384615385" y="1157.6153846153848" type="qcurve" smooth="yes"/>
      <point x="305.9015384615385" y="1078.8292307692307"/>
      <point x="393.6107692307694" y="924.7753846153848"/>
      <point x="508.64307692307693" y="800.7784615384614" type="qcurve" smooth="yes"/>
      <point x="1268.4661538461535" y="0.0" type="line"/>
      <point x="1166.4461538461542" y="0.0" type="line"/>
      <point x="450.6015384615384" y="772.3323076923076" type="line" smooth="yes"/>
      <point x="323.03999999999996" y="910.2046153846154"/>
      <point x="235.0107692307692" y="1066.5476923076926"/>
      <point x="235.0107692307692" y="1157.6153846153848" type="qcurve" smooth="yes"/>
      <point x="235.0107692307692" y="1303.284615384615"/>
      <point x="427.7815384615384" y="1486.0"/>
      <point x="573.34" y="1486.0" type="qcurve" smooth="yes"/>
      <point x="713.1661538461539" y="1486.0"/>
      <point x="896.7492307692307" y="1318.0107692307697"/>
      <point x="896.7492307692307" y="1180.2246153846158" type="qcurve" smooth="yes"/>
      <point x="896.7492307692307" y="1076.0630769230768"/>
      <point x="769.8415384615387" y="918.18"/>
      <point x="675.9261538461537" y="864.4076923076922" type="qcurve" smooth="yes"/>
      <point x="492.03846153846155" y="764.9569230769231" type="line" smooth="yes"/>
      <point x="301.1369230769231" y="658.846153846154"/>
      <point x="153.97384615384618" y="481.5476923076922"/>
      <point x="153.97384615384618" y="377.53846153846143" type="qcurve" smooth="yes"/>
      <point x="153.97384615384618" y="233.1492307692308"/>
      <point x="364.09999999999997" y="41.9476923076923"/>
      <point x="540.7476923076921" y="41.9476923076923" type="qcurve" smooth="yes"/>
      <point x="781.0784615384615" y="41.9476923076923"/>
      <point x="1118.4323076923076" y="384.4569230769231"/>
      <point x="1118.4323076923076" y="674.0" type="qcurve"/>
      <point x="1188.9953846153844" y="674.0" type="line"/>
      <point x="1188.9953846153844" y="378.2307692307692"/>
      <point x="818.9261538461536" y="-20.0"/>
      <point x="540.7476923076921" y="-20.0" type="qcurve" smooth="yes"/>
      <point x="324.05846153846153" y="-20.0"/>
      <point x="82.3076923076923" y="209.3753846153846"/>
    </contour>
  </outline>
</glyph>
<glyph name="parenright" format="2">
  <advance width="621"/>
  <unicode hex="0029"/>
  <outline>
    <contour>
      <point x="-44.307692307692314" y="-436.0" type="qcurve"/>
      <point x="-44.307692307692314" y="-381.14307692307693" type="line"/>
      <point x="129.32153846153844" y="-314.77076923076925"/>
      <point x="423.08" y="88.77538461538461"/>
      <point x="423.08" y="508.15384615384613" type="qcurve" smooth="yes"/>
      <point x="423.08" y="531.8461538461538" type="line" smooth="yes"/>
      <point x="423.08" y="933.5415384615385"/>
      <point x="129.32153846153844" y="1353.8476923076921"/>
      <point x="-44.307692307692314" y="1420.22" type="qcurve"/>
      <point x="-44.307692307692314" y="1476.0" type="line"/>
      <point x="165.58615384615385" y="1407.493846153846"/>
      <point x="494.6000000000001" y="920.4046153846153"/>
      <point x="494.6000000000001" y="524.8461538461538" type="qcurve" smooth="yes"/>
      <point x="494.6000000000001" y="514.9230769230769" type="line" smooth="yes"/>
      <point x="494.6000000000001" y="97.8923076923077"/>
      <point x="165.58615384615385" y="-367.4938461538461"/>
    </contour>
  </outline>
</glyph>
<glyph name="comma" format="2">
  <advance width="517"/>
  <unicode hex="002C"/>
  <outline>
    <contour>
      <point x="170.25230769230762" y="-144.58923076923074" type="line"/>
      <point x="199.33538461538456" y="-103.00923076923074"/>
      <point x="228.1153846153846" y="-10.432307692307692"/>
      <point x="227.73076923076917" y="52.215384615384615" type="qcurve" smooth="yes"/>
      <point x="227.5769230769231" y="148.37846153846155" type="line"/>
      <point x="311.7923076923077" y="148.45538461538462" type="line"/>
      <point x="311.94615384615383" y="52.36923076923077" type="line" smooth="yes"/>
      <point x="312.48461538461544" y="-23.28153846153846"/>
      <point x="267.04769230769233" y="-133.89076923076922"/>
      <point x="226.33692307692309" y="-177.61230769230764" type="qcurve"/>
    </contour>
  </outline>
</glyph>
<glyph name="period" format="2">
  <advance width="490"/>
  <unicode hex="002E"/>
  <outline>
    <contour>
      <point x="182.32923076923078" y="58.71076923076922" type="qcurve" smooth="yes"/>
      <point x="182.32923076923078" y="92.14153846153847"/>
      <point x="214.84153846153848" y="138.46615384615384"/>
      <point x="245.3676923076923" y="138.46615384615384" type="qcurve" smooth="yes"/>
      <point x="274.6307692307693" y="138.46615384615384"/>
      <point x="306.8030769230769" y="92.14153846153847"/>
      <point x="306.8030769230769" y="59.55692307692306" type="qcurve" smooth="yes"/>
      <point x="306.8030769230769" y="25.786153846153844"/>
      <point x="274.55384615384617" y="-20.538461538461537"/>
      <point x="244.3676923076923" y="-20.538461538461537" type="qcurve" smooth="yes"/>
      <point x="214.84153846153848" y="-20.538461538461537"/>
      <point x="182.32923076923078" y="25.786153846153844"/>
    </contour>
  </outline>
</glyph>
<glyph name="slash" format="2">
  <advance width="638"/>
  <unicode hex="002F"/>
  <outline>
    <contour>
      <point x="-89.03076923076924" y="-125.0" type="line"/>
      <point x="646.6892307692308" y="1456.0" type="line"/>
      <point x="720.6184615384615" y="1456.0" type="line"/>
      <point x="-17.172307692307694" y="-125.0" type="line"/>
    </contour>
  </outline>
</glyph>
<glyph name="zero" format="2">
  <advance width="1288"/>
  <unicode hex="0030"/>
  <outline>
    <contour>
      <point x="139" y="543" type="qcurve" smooth="yes"/>
      <point x="139" y="915" type="line" smooth="yes"/>
      <point x="139" y="1186"/>
      <point x="413" y="1485"/>
      <point x="643" y="1485" type="qcurve" smooth="yes"/>
      <point x="873" y="1485"/>
      <point x="1148" y="1196"/>
      <point x="1148" y="915" type="qcurve" smooth="yes"/>
      <point x="1148" y="542" type="line" smooth="yes"/>
      <point x="1148" y="269"/>
      <point x="873" y="-29"/>
      <point x="643" y="-29" type="qcurve" smooth="yes"/>
      <point x="413" y="-29"/>
      <point x="139" y="269"/>
    </contour>
    <contour>
      <point x="213" y="534" type="line" smooth="yes"/>
      <point x="213" y="294"/>
      <point x="439" y="37"/>
      <point x="643" y="37" type="qcurve" smooth="yes"/>
      <point x="848" y="37"/>
      <point x="1076" y="294"/>
      <point x="1076" y="532" type="qcurve" smooth="yes"/>
      <point x="1076" y="925" type="line" smooth="yes"/>
      <point x="1076" y="1160"/>
      <point x="849" y="1419"/>
      <point x="643" y="1419" type="qcurve" smooth="yes"/>
      <point x="439" y="1419"/>
      <point x="213" y="1159"/>
      <point x="213" y="924" type="qcurve" smooth="yes"/>
    </contour>
  </outline>
</glyph>
<glyph name="one" format="2">
  <advance width="1288"/>
  <unicode hex="0031"/>
  <outline>
    <contour>
      <point x="682" y="0" type="line"/>
      <point x="682" y="1407" type="line"/>
      <point x="204" y="1236" type="line"/>
      <point x="204" y="1305" type="line"/>
      <point x="712" y="1476" type="line"/>
      <point x="754" y="1476" type="line"/>
      <point x="754" y="0" type="line"/>
    </contour>
  </outline>
</glyph>
<glyph name="four" format="2">
  <advance width="1288"/>
  <unicode hex="0034"/>
  <outline>
    <contour>
      <point x="883" y="0" type="line"/>
      <point x="883" y="391" type="line"/>
      <point x="883" y="406" type="line"/>
      <point x="883" y="1365" type="line"/>
      <point x="877" y="1365" type="line"/>
      <point x="165" y="431" type="line"/>
      <point x="882" y="431" type="line"/>
      <point x="914" y="431" type="line"/>
      <point x="1189" y="431" type="line"/>
      <point x="1189" y="368" type="line"/>
      <point x="81" y="368" type="line"/>
      <point x="81" y="442" type="line"/>
      <point x="878" y="1456" type="line"/>
      <point x="953" y="1456" type="line"/>
      <point x="953" y="0" type="line"/>
    </contour>
  </outline>
</glyph>
<glyph name="seven" format="2">
  <advance width="1288"/>
  <unicode hex="0037"/>
  <outline>
    <contour>
      <point x="409" y="0" type="line"/>
      <point x="1079" y="1394" type="line"/>
      <point x="138" y="1394" type="line"/>
      <point x="138" y="1456" type="line"/>
      <point x="1155" y="1456" type="line"/>
      <point x="1155" y="1394" type="line"/>
      <point x="487" y="0" type="line"/>
    </contour>
  </outline>
</glyph>
<glyph name="at" format="2">
  <advance width="2245"/>
  <unicode hex="0040"/>
  <outline>
    <contour>
      <point x="719.0615384615384" y="400.0" type="qcurve" smooth="yes"/>
      <point x="719.0615384615384" y="680.0"/>
      <point x="1010.0415384615385" y="1052.0"/>
      <point x="1213.6107692307694" y="1052.0" type="qcurve" smooth="yes"/>
      <point x="1298.0061538461537" y="1052.0"/>
      <point x="1442.8246153846153" y="978.6307692307691"/>
      <point x="1482.683076923077" y="945.8461538461538" type="qcurve"/>
      <point x="1513.6584615384616" y="946.0" type="line"/>
      <point x="1371.1230769230767" y="350.0" type="line" smooth="yes"/>
      <point x="1334.4430769230771" y="187.48"/>
      <point x="1487.8076923076924" y="58.512307692307694"/>
      <point x="1619.0584615384612" y="58.512307692307694" type="qcurve" smooth="yes"/>
      <point x="1815.4091139240504" y="58.512307692307694"/>
      <point x="2063.5861538461545" y="386.35999999999996"/>
      <point x="2063.5861538461545" y="650.0" type="qcurve" smooth="yes"/>
      <point x="2063.5861538461545" y="958.5230769230768"/>
      <point x="1597.166764073915" y="1424.4738461538464"/>
      <point x="1176.6292307692306" y="1424.4738461538464" type="qcurve" smooth="yes"/>
      <point x="754.1759999999999" y="1424.4738461538464"/>
      <point x="187.96" y="858.5030769230771"/>
      <point x="187.96" y="460.0" type="qcurve" smooth="yes"/>
      <point x="187.96" y="55.589230769230774"/>
      <point x="683.9604395604396" y="-384.4738461538461"/>
      <point x="1060.0507692307694" y="-384.4738461538461" type="qcurve" smooth="yes"/>
      <point x="1224.3569230769233" y="-384.4738461538461"/>
      <point x="1452.404615384615" y="-330.4738461538461"/>
      <point x="1530.1215384615384" y="-294.4738461538461" type="qcurve"/>
      <point x="1530.1215384615384" y="-356.0" type="line"/>
      <point x="1447.4553846153844" y="-399.2307692307692"/>
      <point x="1224.5876923076928" y="-446.0"/>
      <point x="1060.0507692307694" y="-446.0" type="qcurve" smooth="yes"/>
      <point x="665.2230769230769" y="-446.0"/>
      <point x="117.07692307692308" y="40.0"/>
      <point x="117.07692307692308" y="460.0" type="qcurve" smooth="yes"/>
      <point x="117.07692307692308" y="880.0"/>
      <point x="735.3369230769231" y="1486.0"/>
      <point x="1176.6292307692306" y="1486.0" type="qcurve" smooth="yes"/>
      <point x="1612.6184615384614" y="1486.0"/>
      <point x="2131.56" y="1000.0"/>
      <point x="2131.56" y="650.0" type="qcurve" smooth="yes"/>
      <point x="2131.56" y="360.0"/>
      <point x="1835.6923076923078" y="0.0"/>
      <point x="1621.6461538461538" y="0.0" type="qcurve" smooth="yes"/>
      <point x="1499.7341292605706" y="0.0"/>
      <point x="1333.4308999257785" y="106.27763704183066"/>
      <point x="1299.7676923076924" y="197.3938461538461" type="qcurve"/>
      <point x="1258.531536648624" y="105.29354604785317"/>
      <point x="1096.6591782698015" y="0.0"/>
      <point x="1000.8846153846154" y="0.0" type="qcurve" smooth="yes"/>
      <point x="871.4338461538462" y="0.0"/>
      <point x="719.0615384615384" y="219.15384615384616"/>
    </contour>
    <contour>
      <point x="789.3015384615384" y="400.0" type="qcurve" smooth="yes"/>
      <point x="789.3015384615384" y="232.92923076923077"/>
      <point x="908.9770873786409" y="60.60307692307695"/>
      <point x="1022.42" y="60.60307692307695" type="qcurve" smooth="yes"/>
      <point x="1118.1534132787367" y="60.60307692307695"/>
      <point x="1268.3020797572206" y="211.96577088311147"/>
      <point x="1311.5676923076921" y="392.3076923076923" type="qcurve" smooth="yes"/>
      <point x="1440.3107692307692" y="928.7692307692307" type="line"/>
      <point x="1402.368077627995" y="957.0836838395169"/>
      <point x="1285.183076923077" y="992.14"/>
      <point x="1227.5353846153848" y="992.14" type="qcurve" smooth="yes"/>
      <point x="1038.4006820765442" y="992.14"/>
      <point x="789.3015384615384" y="654.3446153846152"/>
    </contour>
  </outline>
</glyph>
<glyph name="A" format="2">
  <advance width="1340"/>
  <unicode hex="0041"/>
  <anchor x="592.9230769230768" y="1432.0" name="top"/>
  <outline>
    <contour>
      <point x="-1.5384615384615385" y="0.0" type="line"/>
      <point x="617.0999999999998" y="1466.538461538462" type="line"/>
      <point x="729.0415384615385" y="1466.538461538462" type="line"/>
      <point x="1346.5769230769229" y="0.0" type="line"/>
      <point x="1262.8492307692304" y="0.0" type="line"/>
      <point x="751.3799999999999" y="1261.82" type="line" smooth="yes"/>
      <point x="728.1153846153845" y="1313.4261538461537"/>
      <point x="688.9753846153845" y="1408.612307692308"/>
      <point x="674.1446153846156" y="1452.4707692307693" type="qcurve"/>
      <point x="662.1307692307693" y="1452.4707692307693" type="line"/>
      <point x="647.5246153846151" y="1408.5353846153848"/>
      <point x="607.9738461538461" y="1313.5030769230764"/>
      <point x="585.8953846153845" y="1261.82" type="qcurve" smooth="yes"/>
      <point x="74.73538461538463" y="0.0" type="line"/>
    </contour>
    <contour>
      <point x="215.19538461538463" y="434.1753846153846" type="line"/>
      <point x="246.89692307692312" y="491.743076923077" type="line"/>
      <point x="1094.356923076923" y="491.743076923077" type="line"/>
      <point x="1126.1353846153845" y="434.1753846153846" type="line"/>
    </contour>
  </outline>
</glyph>
<glyph name="D" format="2">
  <advance width="1383"/>
  <unicode hex="0044"/>
  <outline>
    <contour>
      <point x="182.9538461538462" y="0.0" type="line"/>
      <point x="182.9538461538462" y="1456.0" type="line"/>
      <point x="596.6507692307691" y="1456.0" type="line" smooth="yes"/>
      <point x="895.0815384615385" y="1456.0"/>
      <point x="1263.0123076923082" y="1077.8323076923077"/>
      <point x="1263.0123076923082" y="749.5338461538462" type="qcurve" smooth="yes"/>
      <point x="1263.0123076923082" y="709.3123076923075" type="line" smooth="yes"/>
      <point x="1263.0123076923082" y="379.3846548323471"/>
      <point x="893.2353846153846" y="0.0"/>
      <point x="596.6507692307691" y="0.0" type="qcurve" smooth="yes"/>
    </contour>
    <contour>
      <point x="255.18" y="62.69999999999999" type="line"/>
      <point x="596.6507692307691" y="62.69999999999999" type="line" smooth="yes"/>
      <point x="869.9020477083893" y="62.69999999999999"/>
      <point x="1189.623076923077" y="405.26923076923083"/>
      <point x="1189.623076923077" y="708.1584615384614" type="qcurve" smooth="yes"/>
      <point x="1189.623076923077" y="749.8415384615384" type="line" smooth="yes"/>
      <point x="1189.623076923077" y="1051.8538461538465"/>
      <point x="872.1328169391581" y="1393.3000000000002"/>
      <point x="596.6507692307691" y="1393.3000000000002" type="qcurve" smooth="yes"/>
      <point x="255.18" y="1393.3000000000002" type="line"/>
    </contour>
  </outline>
</glyph>
<glyph name="G" format="2">
  <advance width="1401"/>
  <unicode hex="0047"/>
  <outline>
    <contour>
      <point x="120.03076923076925" y="709.1907692307692" type="qcurve" smooth="yes"/>
      <point x="120.03076923076925" y="749.1938461538463" type="line" smooth="yes"/>
      <point x="120.03076923076925" y="1099.2569230769225"/>
      <point x="473.7138461538462" y="1485.5384615384617"/>
      <point x="747.3815384615384" y="1485.5384615384617" type="qcurve" smooth="yes"/>
      <point x="1014.4507692307691" y="1485.5384615384617"/>
      <point x="1295.2815384615387" y="1223.0323076923075"/>
      <point x="1316.4938461538463" y="1039.7246153846154" type="qcurve" smooth="yes"/>
      <point x="1318.7246153846154" y="1027.8461538461538" type="line"/>
      <point x="1245.3984615384616" y="1027.8461538461538" type="line"/>
      <point x="1243.3215384615385" y="1038.493846153846" type="line" smooth="yes"/>
      <point x="1226.7969961213487" y="1181.225030545642"/>
      <point x="992.9041676485439" y="1422.426153846154"/>
      <point x="747.3815384615384" y="1422.426153846154" type="qcurve" smooth="yes"/>
      <point x="501.2520647773278" y="1422.426153846154"/>
      <point x="193.42" y="1066.506153846154"/>
      <point x="193.42" y="748.8092307692308" type="qcurve" smooth="yes"/>
      <point x="193.42" y="709.4215384615385" type="line" smooth="yes"/>
      <point x="193.42" y="393.7224592925323"/>
      <point x="495.5072539438783" y="33.573846153846155"/>
      <point x="775.6569230769231" y="33.573846153846155" type="qcurve" smooth="yes"/>
      <point x="932.6394523509277" y="33.573846153846155"/>
      <point x="1158.6879771427261" y="102.7075086690359"/>
      <point x="1250.9384615384618" y="172.69230769230765" type="qcurve"/>
      <point x="1250.9384615384618" y="615.2892307692307" type="line"/>
      <point x="751.6923076923076" y="615.2892307692307" type="line"/>
      <point x="751.6923076923076" y="677.9892307692307" type="line"/>
      <point x="1319.3323076923077" y="677.9892307692307" type="line"/>
      <point x="1319.3323076923077" y="146.01384615384615" type="line"/>
      <point x="1240.296923076923" y="76.4753846153846"/>
      <point x="973.3848251748251" y="-29.538461538461537"/>
      <point x="775.656923076923" y="-29.538461538461537" type="qcurve" smooth="yes"/>
      <point x="471.51692307692304" y="-29.538461538461537"/>
      <point x="120.03076923076925" y="360.87369057908387"/>
    </contour>
  </outline>
</glyph>
<glyph name="I" format="2">
  <advance width="454"/>
  <unicode hex="0049"/>
  <anchor x="223.15384615384616" y="1432.0" name="top"/>
  <outline>
    <contour>
      <point x="190.5076923076923" y="0.0" type="line"/>
      <point x="190.5076923076923" y="1456.0" type="line"/>
      <point x="261.81076923076927" y="1456.0" type="line"/>
      <point x="261.81076923076927" y="0.0" type="line"/>
    </contour>
  </outline>
</glyph>
<glyph name="J" format="2">
  <advance width="1081"/>
  <unicode hex="004A"/>
  <outline>
    <contour>
      <point x="25.923076923076923" y="443.8723076923077" type="qcurve" smooth="yes"/>
      <point x="25.923076923076923" y="458.64153846153835" type="line"/>
      <point x="98.24923076923076" y="458.64153846153835" type="line"/>
      <point x="98.24923076923076" y="444.56461538461537" type="line" smooth="yes"/>
      <point x="98.24923076923076" y="242.79999999999998"/>
      <point x="297.9818231917336" y="33.727692307692294"/>
      <point x="474.6215384615384" y="33.727692307692294" type="qcurve" smooth="yes"/>
      <point x="652.4150998851892" y="33.727692307692294"/>
      <point x="845.9953846153845" y="262.913417922284"/>
      <point x="845.9953846153845" y="475.71846153846155" type="qcurve" smooth="yes"/>
      <point x="845.9953846153845" y="1456.0" type="line"/>
      <point x="917.2984615384614" y="1456.0" type="line"/>
      <point x="917.2984615384614" y="475.02615384615376" type="line" smooth="yes"/>
      <point x="916.6184615384615" y="240.80094674556213"/>
      <point x="677.98" y="-29.538461538461537"/>
      <point x="475.00615384615384" y="-29.538461538461537" type="qcurve" smooth="yes"/>
      <point x="272.5707692307692" y="-29.538461538461537"/>
      <point x="25.923076923076923" y="222.62615384615384"/>
    </contour>
  </outline>
</glyph>
<glyph name="O" format="2">
  <advance width="1510"/>
  <unicode hex="004F"/>
  <anchor x="673.0" y="1432.0" name="top"/>
  <outline>
    <contour>
      <point x="120.03076923076925" y="708.8507692307692" type="qcurve" smooth="yes"/>
      <point x="120.03076923076925" y="749.4569230769232" type="line" smooth="yes"/>
      <point x="120.03076923076925" y="1099.103076923077"/>
      <point x="473.45076923076925" y="1485.5384615384617"/>
      <point x="757.1446153846153" y="1485.5384615384617" type="qcurve" smooth="yes"/>
      <point x="1040.1523076923077" y="1485.5384615384617"/>
      <point x="1390.3323076923077" y="1100.6415384615384"/>
      <point x="1390.3323076923077" y="749.8415384615386" type="qcurve" smooth="yes"/>
      <point x="1390.3323076923077" y="708.5430769230769" type="line" smooth="yes"/>
      <point x="1390.3323076923077" y="360.7967675021608"/>
      <point x="1041.7676923076922" y="-29.538461538461537"/>
      <point x="757.1446153846153" y="-29.538461538461537" type="qcurve" smooth="yes"/>
      <point x="472.8353846153846" y="-29.538461538461537"/>
      <point x="120.03076923076925" y="360.8736905790838"/>
    </contour>
    <contour>
      <point x="193.42" y="709.0815384615385" type="line" smooth="yes"/>
      <point x="193.42" y="388.4424592925324"/>
      <point x="500.87011406844107" y="33.57384615384615"/>
      <point x="757.1446153846155" y="33.57384615384615" type="qcurve" smooth="yes"/>
      <point x="1013.7192044457443" y="33.57384615384615"/>
      <point x="1317.283076923077" y="388.2886131386862"/>
      <point x="1317.283076923077" y="709.0815384615383" type="qcurve" smooth="yes"/>
      <point x="1317.283076923077" y="749.0723076923078" type="line" smooth="yes"/>
      <point x="1317.283076923077" y="1073.2476923076927"/>
      <point x="1012.1807429072826" y="1422.4261538461537"/>
      <point x="757.1446153846152" y="1422.4261538461537" type="qcurve" smooth="yes"/>
      <point x="502.5178063761334" y="1422.4261538461537"/>
      <point x="193.42" y="1071.7861538461543"/>
      <point x="193.42" y="749.1492307692308" type="qcurve" smooth="yes"/>
    </contour>
  </outline>
</glyph>
<glyph name="P" format="2">
  <advance width="1200"/>
  <unicode hex="0050"/>
  <outline>
    <contour>
      <point x="182.9538461538462" y="0.0" type="line"/>
      <point x="182.9538461538462" y="1456.0" type="line"/>
      <point x="657.7969230769233" y="1456.0" type="line" smooth="yes"/>
      <point x="903.0999999999999" y="1456.0"/>
      <point x="1144.2138461538464" y="1220.0046153846154"/>
      <point x="1144.2138461538464" y="1032.8569230769233" type="qcurve" smooth="yes"/>
      <point x="1144.2138461538464" y="848.1707692307693"/>
      <point x="902.7923076923076" y="611.0584615384615"/>
      <point x="657.7969230769233" y="611.0584615384615" type="qcurve" smooth="yes"/>
      <point x="255.18" y="611.0584615384615" type="line"/>
      <point x="255.18" y="0.0" type="line"/>
    </contour>
    <contour>
      <point x="255.18" y="672.8353846153847" type="line"/>
      <point x="656.8738461538462" y="672.8353846153847" type="line" smooth="yes"/>
      <point x="885.3974144180426" y="672.8353846153847"/>
      <point x="1071.3046153846153" y="878.2938461538462"/>
      <point x="1071.3046153846153" y="1032.8569230769233" type="qcurve" smooth="yes"/>
      <point x="1071.3046153846153" y="1188.8815384615386"/>
      <point x="885.4743374949658" y="1393.3000000000002"/>
      <point x="657.0276923076924" y="1393.3000000000002" type="qcurve" smooth="yes"/>
      <point x="255.18" y="1393.3000000000002" type="line"/>
    </contour>
  </outline>
</glyph>
<glyph name="S" format="2">
  <advance width="1226"/>
  <unicode hex="0053"/>
  <outline>
    <contour>
      <point x="92.8446153846154" y="390.22153846153833" type="qcurve" smooth="yes"/>
      <point x="92.61384615384617" y="403.22153846153844" type="line"/>
      <point x="164.84" y="403.22153846153844" type="line"/>
      <point x="164.99384615384616" y="390.2338461538461" type="line" smooth="yes"/>
      <point x="167.0707692307692" y="220.48"/>
      <point x="402.6758101472995" y="33.57384615384615"/>
      <point x="625.1353846153844" y="33.57384615384615" type="qcurve" smooth="yes"/>
      <point x="847.915220313667" y="33.57384615384615"/>
      <point x="1072.8907692307694" y="222.7753846153846"/>
      <point x="1072.8907692307694" y="362.1676923076923" type="qcurve" smooth="yes"/>
      <point x="1072.8907692307694" y="486.48615384615385"/>
      <point x="893.7323076923077" y="639.5692307692306"/>
      <point x="612.4676923076922" y="708.8799999999998" type="qcurve" smooth="yes"/>
      <point x="329.28000000000003" y="778.9276923076923"/>
      <point x="132.0553846153846" y="957.5430769230769"/>
      <point x="130.69538461538463" y="1105.0923076923073" type="qcurve" smooth="yes"/>
      <point x="128.9953846153846" y="1267.730769230769"/>
      <point x="377.9138461538462" y="1485.5384615384617"/>
      <point x="610.5061538461538" y="1485.5384615384617" type="qcurve" smooth="yes"/>
      <point x="847.0061538461538" y="1485.5384615384617"/>
      <point x="1108.4107692307693" y="1244.9399999999994"/>
      <point x="1109.3338461538463" y="1074.163076923077" type="qcurve" smooth="yes"/>
      <point x="1109.4876923076922" y="1061.0861538461534" type="line"/>
      <point x="1038.0307692307692" y="1061.0861538461534" type="line"/>
      <point x="1037.876923076923" y="1073.7784615384614" type="line" smooth="yes"/>
      <point x="1033.2138461538461" y="1220.758461538461"/>
      <point x="828.4986518636003" y="1422.4261538461535"/>
      <point x="610.4292307692307" y="1422.4261538461535" type="qcurve" smooth="yes"/>
      <point x="395.2936246153846" y="1422.4261538461535"/>
      <point x="199.3815384615385" y="1245.9815384615383"/>
      <point x="199.3815384615385" y="1108.8323076923077" type="qcurve" smooth="yes"/>
      <point x="199.3815384615385" y="993.0923076923077"/>
      <point x="389.6030769230768" y="844.0615384615387"/>
      <point x="670.1830769230768" y="776.2846153846153" type="qcurve" smooth="yes"/>
      <point x="942.6353846153846" y="709.5476923076924"/>
      <point x="1144.053846153846" y="524.2861538461539"/>
      <point x="1144.053846153846" y="364.01384615384615" type="qcurve" smooth="yes"/>
      <point x="1144.053846153846" y="190.5938461538462"/>
      <point x="870.9184615384615" y="-29.538461538461537"/>
      <point x="625.1353846153846" y="-29.538461538461537" type="qcurve" smooth="yes"/>
      <point x="378.66923076923075" y="-29.538461538461537"/>
      <point x="94.8446153846154" y="194.1492307692308"/>
    </contour>
  </outline>
</glyph>
<glyph name="T" format="2">
  <advance width="1217"/>
  <unicode hex="0054"/>
  <outline>
    <contour>
      <point x="23.846153846153847" y="1390.5800000000002" type="line"/>
      <point x="23.846153846153847" y="1456.0" type="line"/>
      <point x="1193.4492307692308" y="1456.0" type="line"/>
      <point x="1193.4492307692308" y="1390.5800000000002" type="line"/>
      <point x="644.9307692307691" y="1390.5800000000002" type="line"/>
      <point x="644.9307692307691" y="0.0" type="line"/>
      <point x="573.6276923076923" y="0.0" type="line"/>
      <point x="573.6276923076923" y="1390.5800000000002" type="line"/>
    </contour>
  </outline>
</glyph>
<glyph name="X" format="2">
  <advance width="1346"/>
  <unicode hex="0058"/>
  <outline>
    <contour>
      <point x="32" y="0.0" type="line"/>
      <point x="656" y="766" type="line"/>
      <point x="660" y="766" type="line"/>
      <point x="1190" y="1456.0" type="line"/>
      <point x="1286" y="1456.0" type="line"/>
      <point x="693" y="710" type="line"/>
      <point x="690" y="710" type="line"/>
      <point x="127" y="0.0" type="line"/>
    </contour>
    <contour>
      <point x="62" y="1456.0" type="line"/>
      <point x="169" y="1456.0" type="line"/>
      <point x="697" y="766" type="line"/>
      <point x="697" y="766" type="line"/>
      <point x="1316" y="0.0" type="line"/>
      <point x="1209" y="0.0" type="line"/>
      <point x="650" y="713" type="line"/>
      <point x="650" y="713" type="line"/>
    </contour>
  </outline>
</glyph>
<glyph name="bracketleft" format="2">
  <advance width="532"/>
  <unicode hex="005B"/>
  <outline>
    <contour>
      <point x="167.95538461538462" y="-310.0" type="line"/>
      <point x="167.95538461538462" y="1456.0" type="line"/>
      <point x="618.1076923076923" y="1456.0" type="line"/>
      <point x="618.1076923076923" y="1394.3123076923077" type="line"/>
      <point x="239.62153846153853" y="1394.3123076923077" type="line"/>
      <point x="239.62153846153853" y="-248.3123076923077" type="line"/>
      <point x="618.1076923076923" y="-248.3123076923077" type="line"/>
      <point x="618.1076923076923" y="-310.0" type="line"/>
    </contour>
  </outline>
</glyph>
<glyph name="backslash" format="2">
  <advance width="646"/>
  <unicode hex="005C"/>
  <outline>
    <contour>
      <point x="-87.8723076923077" y="1456.0" type="line"/>
      <point x="-14.372307692307686" y="1456.0" type="line"/>
      <point x="737.3569230769231" y="-125.0" type="line"/>
      <point x="662.8630769230768" y="-125.0" type="line"/>
    </contour>
  </outline>
</glyph>
<glyph name="bracketright" format="2">
  <advance width="532"/>
  <unicode hex="005D"/>
  <outline>
    <contour>
      <point x="364.0907692307693" y="-310.0" type="line"/>
      <point x="-86.98461538461538" y="-310.0" type="line"/>
      <point x="-86.98461538461538" y="-248.3123076923077" type="line"/>
      <point x="291.5015384615384" y="-248.3123076923077" type="line"/>
      <point x="291.5015384615384" y="1394.3123076923077" type="line"/>
      <point x="-86.98461538461538" y="1394.3123076923077" type="line"/>
      <point x="-86.98461538461538" y="1456.0" type="line"/>
      <point x="364.0907692307693" y="1456.0" type="line"/>
    </contour>
  </outline>
</glyph>
<glyph name="asciicircum" format="2">
  <advance width="1254"/>
  <unicode hex="005E"/>
  <outline>
    <contour>
      <point x="34.10769230769231" y="720.0" type="line"/>
      <point x="597.2615384615383" y="1456.0" type="line"/>
      <point x="658.0815384615388" y="1456.0" type="line"/>
      <point x="1221.1584615384616" y="720.0" type="line"/>
      <point x="1132.986153846154" y="720.0" type="line"/>
      <point x="627.8030769230769" y="1402.9492307692312" type="line"/>
      <point x="122.62" y="720.0" type="line"/>
    </contour>
  </outline>
</glyph>
<glyph name="a" format="2">
  <advance width="1146"/>
  <unicode hex="0061"/>
  <anchor x="495.6923076923077" y="1041.3846153846155" name="top"/>
  <outline>
    <contour>
      <point x="91.58153846153846" y="285.8092307692307" type="qcurve" smooth="yes"/>
      <point x="91.58153846153846" y="432.21230769230766"/>
      <point x="344.93384615384605" y="601.6292307692307"/>
      <point x="552.1476923076923" y="601.6292307692307" type="qcurve" smooth="yes"/>
      <point x="910.8523076923078" y="601.6292307692307" type="line"/>
      <point x="910.8523076923078" y="713.4615384615386" type="line" smooth="yes"/>
      <point x="910.8523076923078" y="849.0861538461538"/>
      <point x="760.7523387723388" y="1008.2184615384615"/>
      <point x="580.8015384615384" y="1008.2184615384615" type="qcurve" smooth="yes"/>
      <point x="399.7767402894135" y="1008.2184615384615"/>
      <point x="239.83076923076928" y="868.0353846153845"/>
      <point x="239.83076923076928" y="767.6138461538462" type="qcurve" smooth="yes"/>
      <point x="239.83076923076928" y="753.5830769230769" type="line"/>
      <point x="172.33692307692309" y="753.5830769230769" type="line"/>
      <point x="172.33692307692309" y="768.8" type="line" smooth="yes"/>
      <point x="172.33692307692309" y="893.4492307692308"/>
      <point x="384.7107692307692" y="1071.3846153846152"/>
      <point x="583.3123076923077" y="1071.3846153846152" type="qcurve" smooth="yes"/>
      <point x="774.7676923076922" y="1071.3846153846152"/>
      <point x="982.5815384615385" y="892.5384615384615"/>
      <point x="982.5815384615385" y="714.0769230769231" type="qcurve" smooth="yes"/>
      <point x="982.5815384615385" y="240.0" type="line" smooth="yes"/>
      <point x="982.5815384615385" y="174.30769230769232"/>
      <point x="1006.9107692307691" y="58.15384615384615"/>
      <point x="1028.7523076923078" y="15.0" type="qcurve"/>
      <point x="1028.7523076923078" y="0.0" type="line"/>
      <point x="965.1907692307693" y="0.0" type="line"/>
      <point x="945.5753846153845" y="30.004615384615384"/>
      <point x="917.9261538461537" y="126.99846153846157"/>
      <point x="914.2492307692307" y="179.0723076923077" type="qcurve"/>
      <point x="869.0633909626632" y="107.56333132838527"/>
      <point x="636.2231519699811" y="-20.769230769230766"/>
      <point x="465.59846153846155" y="-20.769230769230766" type="qcurve" smooth="yes"/>
      <point x="298.3138461538461" y="-20.769230769230766"/>
      <point x="91.58153846153846" y="136.74153846153845"/>
    </contour>
    <contour>
      <point x="162.54153846153847" y="286.723076923077" type="qcurve" smooth="yes"/>
      <point x="162.54153846153847" y="164.85076923076923"/>
      <point x="329.64390166534497" y="39.676923076923075"/>
      <point x="490.8707692307692" y="39.676923076923075" type="qcurve" smooth="yes"/>
      <point x="650.4957299843014" y="39.676923076923075"/>
      <point x="910.8523076923078" y="225.93230769230766"/>
      <point x="910.8523076923078" y="336.3076923076923" type="qcurve"/>
      <point x="910.8523076923078" y="539.4492307692308" type="line"/>
      <point x="573.1538461538462" y="539.4492307692308" type="line" smooth="yes"/>
      <point x="375.0045994420087" y="539.4492307692309"/>
      <point x="162.54153846153847" y="403.9692307692307"/>
    </contour>
  </outline>
</glyph>
<glyph name="d" format="2">
  <advance width="1221"/>
  <unicode hex="0064"/>
  <outline>
    <contour>
      <point x="90.39538461538461" y="505.6923076923077" type="qcurve" smooth="yes"/>
      <point x="90.39538461538461" y="535.7692307692307" type="line" smooth="yes"/>
      <point x="90.39538461538461" y="765.7692307692308"/>
      <point x="343.11538461538464" y="1062.1538461538462"/>
      <point x="565.6123076923076" y="1062.1538461538462" type="qcurve" smooth="yes"/>
      <point x="715.6476923076923" y="1062.1538461538462"/>
      <point x="927.9184615384613" y="965.4692307692308"/>
      <point x="994.04" y="890.6800000000001" type="qcurve"/>
      <point x="994.04" y="1529.8461538461538" type="line"/>
      <point x="1065.7692307692307" y="1529.8461538461538" type="line"/>
      <point x="1065.7692307692307" y="0.0" type="line"/>
      <point x="1000.6107692307692" y="0.0" type="line"/>
      <point x="997.0815384615383" y="159.8430769230769" type="line"/>
      <point x="996.18" y="156.7830769230769" type="line"/>
      <point x="937.7953846153845" y="88.24153846153845"/>
      <point x="712.9784615384615" y="-20.76923076923077"/>
      <point x="565.2892307692307" y="-20.76923076923077" type="qcurve" smooth="yes"/>
      <point x="341.5615384615385" y="-20.76923076923077"/>
      <point x="90.39538461538461" y="275.0769230769231"/>
    </contour>
    <contour>
      <point x="161.63538461538468" y="505.84615384615387" type="line" smooth="yes"/>
      <point x="161.63538461538468" y="306.77230769230766"/>
      <point x="365.8046153846153" y="42.02461538461538"/>
      <point x="584.6153846153846" y="42.02461538461538" type="qcurve" smooth="yes"/>
      <point x="732.8338461538459" y="42.02461538461538"/>
      <point x="949.4569230769231" y="166.40153846153848"/>
      <point x="994.0400000000001" y="244.9246153846154" type="qcurve"/>
      <point x="994.0400000000001" y="793.6753846153848" type="line"/>
      <point x="948.4507692307693" y="876.6307692307693"/>
      <point x="736.2984615384613" y="999.36"/>
      <point x="585.6184615384615" y="999.36" type="qcurve" smooth="yes"/>
      <point x="367.88461538461536" y="999.36"/>
      <point x="161.63538461538468" y="733.7661538461537"/>
      <point x="161.63538461538468" y="535.6153846153844" type="qcurve" smooth="yes"/>
    </contour>
  </outline>
</glyph>
<glyph name="e" format="2">
  <advance width="1107"/>
  <unicode hex="0065"/>
  <anchor x="501.0" y="1042.3076923076924" name="top"/>
  <outline>
    <contour>
      <point x="90.39538461538461" y="505.76923076923083" type="qcurve" smooth="yes"/>
      <point x="90.39538461538461" y="535.9230769230769" type="line" smooth="yes"/>
      <point x="90.39538461538461" y="773.4615384615385"/>
      <point x="359.34461538461534" y="1071.3846153846152"/>
      <point x="584.7138461538461" y="1071.3846153846152" type="qcurve" smooth="yes"/>
      <point x="806.0492307692307" y="1071.3846153846152"/>
      <point x="1038.8230769230768" y="793.769230769231"/>
      <point x="1038.8230769230768" y="560.6923076923075" type="qcurve" smooth="yes"/>
      <point x="1038.8230769230768" y="524.1153846153846" type="line"/>
      <point x="119.03538461538459" y="524.1153846153846" type="line"/>
      <point x="118.35538461538458" y="586.609230769231" type="line"/>
      <point x="968.6415384615384" y="586.609230769231" type="line"/>
      <point x="967.7184615384614" y="571.3261538461538" type="line"/>
      <point x="968.9815384615383" y="750.070769230769"/>
      <point x="808.9328703296704" y="1010.4369230769232"/>
      <point x="574.6092307692309" y="1010.4369230769232" type="qcurve" smooth="yes"/>
      <point x="374.6924144749852" y="1010.4369230769232"/>
      <point x="158.71076923076927" y="738.7015384615387"/>
      <point x="158.71076923076927" y="535.6923076923076" type="qcurve" smooth="yes"/>
      <point x="158.71076923076927" y="505.6923076923077" type="line" smooth="yes"/>
      <point x="158.71076923076927" y="302.06769230769225"/>
      <point x="385.3469409660107" y="30.94769230769231"/>
      <point x="617.7107692307693" y="30.94769230769231" type="qcurve" smooth="yes"/>
      <point x="746.5134468584849" y="30.94769230769231"/>
      <point x="924.6492307692307" y="112.39384615384613"/>
      <point x="983.2769230769231" y="178.10461538461539" type="qcurve"/>
      <point x="1031.1461538461538" y="130.9523076923077" type="line"/>
      <point x="977.7030769230769" y="69.08769230769231"/>
      <point x="771.2415384615384" y="-30.0"/>
      <point x="617.7107692307691" y="-30.0" type="qcurve" smooth="yes"/>
      <point x="363.97846153846154" y="-30.0"/>
      <point x="90.39538461538461" y="267.46153846153845"/>
    </contour>
  </outline>
</glyph>
<glyph name="o" format="2">
  <advance width="1222"/>
  <unicode hex="006F"/>
  <anchor x="521.2307692307692" y="1041.3846153846155" name="top"/>
  <outline>
    <contour>
      <point x="90.39538461538461" y="505.5384615384616" type="qcurve" smooth="yes"/>
      <point x="90.39538461538461" y="535.9230769230769" type="line" smooth="yes"/>
      <point x="90.39538461538461" y="773.1538461538462"/>
      <point x="373.6461538461539" y="1071.3846153846152"/>
      <point x="610.8461538461538" y="1071.3846153846152" type="qcurve" smooth="yes"/>
      <point x="848.276923076923" y="1071.3846153846152"/>
      <point x="1131.3738461538462" y="773.1538461538462"/>
      <point x="1131.3738461538462" y="535.7692307692307" type="qcurve" smooth="yes"/>
      <point x="1131.3738461538462" y="505.0769230769231" type="line" smooth="yes"/>
      <point x="1131.3738461538462" y="267.6923076923077"/>
      <point x="847.3538461538461" y="-30.0"/>
      <point x="610.8461538461538" y="-30.0" type="qcurve" smooth="yes"/>
      <point x="374.3384615384617" y="-30.0"/>
      <point x="90.39538461538461" y="267.84615384615387"/>
    </contour>
    <contour>
      <point x="161.63538461538465" y="535.6923076923078" type="qcurve" smooth="yes"/>
      <point x="161.63538461538465" y="505.6923076923078" type="line" smooth="yes"/>
      <point x="161.63538461538465" y="295.0338461538462"/>
      <point x="392.4923076923076" y="32.79384615384615"/>
      <point x="610.9230769230769" y="32.79384615384615" type="qcurve" smooth="yes"/>
      <point x="828.9692307692306" y="32.79384615384615"/>
      <point x="1060.133846153846" y="294.8030769230769"/>
      <point x="1060.133846153846" y="505.3846153846155" type="qcurve" smooth="yes"/>
      <point x="1060.133846153846" y="535.4615384615387" type="line" smooth="yes"/>
      <point x="1060.133846153846" y="742.3353846153847"/>
      <point x="829.8923076923077" y="1008.5907692307694"/>
      <point x="610.8461538461538" y="1008.5907692307694" type="qcurve" smooth="yes"/>
      <point x="391.87692307692305" y="1008.5907692307694"/>
      <point x="161.63538461538465" y="742.3353846153846"/>
    </contour>
  </outline>
</glyph>
<glyph name="p" format="2">
  <advance width="1221"/>
  <unicode hex="0070"/>
  <outline>
    <contour>
      <point x="151.46153846153845" y="-416.0" type="line"/>
      <point x="151.46153846153845" y="1041.3846153846155" type="line"/>
      <point x="216.61999999999998" y="1041.3846153846155" type="line"/>
      <point x="219.22615384615386" y="882.0799999999999" type="line"/>
      <point x="217.5046153846154" y="882.0799999999999" type="line"/>
      <point x="276.4769230769231" y="953.6615384615387"/>
      <point x="500.0507692307692" y="1062.1538461538462"/>
      <point x="649.3553846153845" y="1062.1538461538462" type="qcurve" smooth="yes"/>
      <point x="871.8523076923077" y="1062.1538461538462"/>
      <point x="1129.3123076923075" y="765.7692307692308"/>
      <point x="1129.3123076923075" y="535.7692307692308" type="qcurve" smooth="yes"/>
      <point x="1129.3123076923075" y="505.6923076923077" type="line" smooth="yes"/>
      <point x="1129.3123076923075" y="275.07692307692304"/>
      <point x="871.0061538461539" y="-20.76923076923077"/>
      <point x="647.2784615384616" y="-20.76923076923077" type="qcurve" smooth="yes"/>
      <point x="500.3646153846155" y="-20.76923076923077"/>
      <point x="287.1707692307693" y="77.11384615384615"/>
      <point x="222.2676923076923" y="147.84307692307686" type="qcurve"/>
      <point x="222.2676923076923" y="-416.0" type="line"/>
    </contour>
    <contour>
      <point x="222.2676923076923" y="244.92461538461538" type="line"/>
      <point x="266.36307692307696" y="166.40153846153845"/>
      <point x="475.65384615384613" y="42.02461538461538"/>
      <point x="622.6092307692307" y="42.02461538461538" type="qcurve" smooth="yes"/>
      <point x="842.343076923077" y="42.02461538461538"/>
      <point x="1057.1492307692306" y="306.7723076923076"/>
      <point x="1057.1492307692306" y="505.84615384615387" type="qcurve" smooth="yes"/>
      <point x="1057.1492307692306" y="535.6153846153846" type="line" smooth="yes"/>
      <point x="1057.1492307692306" y="733.7661538461539"/>
      <point x="843.343076923077" y="999.36"/>
      <point x="624.6861538461541" y="999.36" type="qcurve" smooth="yes"/>
      <point x="475.2692307692308" y="999.36"/>
      <point x="268.9276923076924" y="876.2907692307693"/>
      <point x="222.2676923076923" y="797.0753846153846" type="qcurve"/>
    </contour>
  </outline>
</glyph>
<glyph name="q" format="2">
  <advance width="1221"/>
  <unicode hex="0071"/>
  <outline>
    <contour>
      <point x="90.39538461538461" y="505.6923076923077" type="qcurve" smooth="yes"/>
      <point x="90.39538461538461" y="535.7692307692307" type="line" smooth="yes"/>
      <point x="90.39538461538461" y="765.7692307692308"/>
      <point x="335.62" y="1062.1538461538462"/>
      <point x="558.1907692307691" y="1062.1538461538462" type="qcurve" smooth="yes"/>
      <point x="708.4369230769231" y="1062.1538461538462"/>
      <point x="939.9076923076924" y="953.8830769230769"/>
      <point x="996.7938461538461" y="881.8953846153846" type="qcurve"/>
      <point x="996.6969230769231" y="881.8953846153846" type="line"/>
      <point x="999.7092307692309" y="1041.3846153846155" type="line"/>
      <point x="1065.4584615384613" y="1041.3846153846155" type="line"/>
      <point x="1065.4584615384613" y="-415.84615384615387" type="line"/>
      <point x="993.1015384615384" y="-415.84615384615387" type="line"/>
      <point x="993.1015384615386" y="148.02769230769226" type="line"/>
      <point x="993.1015384615386" y="148.02769230769226" type="line"/>
      <point x="929.0292307692308" y="77.03999999999999"/>
      <point x="709.7446153846154" y="-20.76923076923077"/>
      <point x="562.0369230769231" y="-20.76923076923077" type="qcurve" smooth="yes"/>
      <point x="338.2353846153846" y="-20.76923076923077"/>
      <point x="90.39538461538461" y="275.0769230769231"/>
    </contour>
    <contour>
      <point x="161.63538461538468" y="505.84615384615387" type="line" smooth="yes"/>
      <point x="161.63538461538468" y="306.77230769230766"/>
      <point x="366.4846153846154" y="42.02461538461538"/>
      <point x="585.2953846153846" y="42.02461538461538" type="qcurve" smooth="yes"/>
      <point x="733.5138461538459" y="42.02461538461538"/>
      <point x="948.9246153846154" y="166.40153846153848"/>
      <point x="993.3599999999999" y="244.9246153846154" type="qcurve"/>
      <point x="993.3599999999999" y="797.0753846153848" type="line"/>
      <point x="947.623076923077" y="876.2907692307692"/>
      <point x="732.8984615384613" y="999.36"/>
      <point x="582.2184615384615" y="999.36" type="qcurve" smooth="yes"/>
      <point x="364.4846153846154" y="999.36"/>
      <point x="161.63538461538468" y="733.7661538461537"/>
      <point x="161.63538461538468" y="535.6153846153844" type="qcurve" smooth="yes"/>
    </contour>
  </outline>
</glyph>
<glyph name="u" format="2">
  <advance width="1174"/>
  <unicode hex="0075"/>
  <anchor x="503.9999999999999" y="1041.3846153846155" name="top"/>
  <outline>
    <contour>
      <point x="140.69230769230768" y="360.9415384615385" type="qcurve" smooth="yes"/>
      <point x="140.69230769230768" y="1041.3846153846155" type="line"/>
      <point x="211.49846153846153" y="1041.3846153846155" type="line"/>
      <point x="211.49846153846153" y="359.7107692307693" type="line" smooth="yes"/>
      <point x="211.49846153846153" y="191.53384615384613"/>
      <point x="383.89538461538456" y="41.44923076923079"/>
      <point x="544.2707692307691" y="41.44923076923079" type="qcurve" smooth="yes"/>
      <point x="680.6030769230769" y="41.44923076923079"/>
      <point x="878.823076923077" y="170.82461538461538"/>
      <point x="940.5615384615384" y="267.29384615384623" type="qcurve"/>
      <point x="940.5615384615384" y="1041.3846153846155" type="line"/>
      <point x="1011.9507692307695" y="1041.3846153846155" type="line"/>
      <point x="1011.9507692307695" y="0.0" type="line"/>
      <point x="946.7923076923074" y="0.0" type="line"/>
      <point x="943.603076923077" y="183.4876923076923" type="line"/>
      <point x="945.3246153846153" y="183.4876923076923" type="line"/>
      <point x="870.2692307692308" y="84.6076923076923"/>
      <point x="655.9384615384613" y="-20.923076923076923"/>
      <point x="516.0400000000001" y="-20.923076923076923" type="qcurve" smooth="yes"/>
      <point x="340.99230769230775" y="-20.923076923076923"/>
      <point x="140.69230769230768" y="157.03846153846152"/>
    </contour>
  </outline>
</glyph>
<glyph name="v" format="2">
  <advance width="1073"/>
  <unicode hex="0076"/>
  <outline>
    <contour>
      <point x="6.306153846153847" y="1041.3846153846155" type="line"/>
      <point x="93.78000000000002" y="1041.3846153846155" type="line"/>
      <point x="483.85076923076923" y="172.5369230769231" type="line" smooth="yes"/>
      <point x="502.62000000000006" y="131.3830769230769"/>
      <point x="529.4415384615386" y="78.61384615384617"/>
      <point x="537.0" y="61.7676923076923" type="qcurve"/>
      <point x="540.6923076923076" y="61.7676923076923" type="line"/>
      <point x="547.3276923076922" y="74.92153846153842"/>
      <point x="576.9953846153845" y="135.99846153846156"/>
      <point x="592.9953846153846" y="173.46" type="qcurve" smooth="yes"/>
      <point x="982.6492307692307" y="1041.3846153846155" type="line"/>
      <point x="1066.7707692307692" y="1041.3846153846155" type="line"/>
      <point x="574.5753846153847" y="0.0" type="line"/>
      <point x="498.8446153846154" y="0.0" type="line"/>
    </contour>
  </outline>
</glyph>
<glyph name="w" format="2">
  <advance width="1736"/>
  <unicode hex="0077"/>
  <outline>
    <contour>
      <point x="35.12307692307693" y="1041.3846153846155" type="line"/>
      <point x="120.08615384615383" y="1041.3846153846155" type="line"/>
      <point x="401.28769230769234" y="213.35076923076923" type="line" smooth="yes"/>
      <point x="414.82615384615383" y="175.0430769230769"/>
      <point x="437.13384615384615" y="98.44307692307693"/>
      <point x="448.4353846153846" y="61.058461538461536" type="qcurve"/>
      <point x="453.9738461538461" y="61.058461538461536" type="line"/>
      <point x="465.4230769230769" y="98.44307692307693"/>
      <point x="495.2630769230768" y="175.11999999999998"/>
      <point x="509.7246153846154" y="213.35076923076923" type="qcurve" smooth="yes"/>
      <point x="830.3061538461538" y="1041.3846153846155" type="line"/>
      <point x="914.5523076923077" y="1041.3846153846155" type="line"/>
      <point x="1235.6723076923076" y="213.19692307692307" type="line" smooth="yes"/>
      <point x="1251.1338461538462" y="174.8123076923077"/>
      <point x="1282.3015384615387" y="98.59692307692308"/>
      <point x="1293.9046153846152" y="61.05846153846155" type="qcurve"/>
      <point x="1299.4430769230764" y="61.05846153846155" type="line"/>
      <point x="1310.8984615384618" y="98.59692307692308"/>
      <point x="1329.0538461538465" y="174.44307692307692"/>
      <point x="1342.7246153846154" y="212.82769230769233" type="qcurve" smooth="yes"/>
      <point x="1623.3799999999999" y="1041.3846153846155" type="line"/>
      <point x="1701.313846153846" y="1041.3846153846155" type="line"/>
      <point x="1339.1092307692306" y="0.0" type="line"/>
      <point x="1245.3646153846153" y="0.0" type="line"/>
      <point x="923.3492307692306" y="826.3030769230768" type="line" smooth="yes"/>
      <point x="907.8384615384615" y="864.303076923077"/>
      <point x="883.36" y="939.7646153846156"/>
      <point x="873.3861538461538" y="977.38" type="qcurve"/>
      <point x="867.8476923076922" y="977.38" type="line"/>
      <point x="857.8738461538461" y="939.7646153846155"/>
      <point x="833.2415384615384" y="864.2261538461537"/>
      <point x="817.807692307692" y="826.3030769230768" type="qcurve" smooth="yes"/>
      <point x="492.2261538461538" y="0.0" type="line"/>
      <point x="397.81538461538463" y="0.0" type="line"/>
    </contour>
  </outline>
</glyph>
<glyph name="z" format="2">
  <advance width="1099"/>
  <unicode hex="007A"/>
  <outline>
    <contour>
      <point x="71" y="0.0" type="line"/>
      <point x="71" y="72" type="line"/>
      <point x="914" y="979" type="line"/>
      <point x="81" y="979" type="line"/>
      <point x="81" y="1041" type="line"/>
      <point x="1002" y="1041" type="line"/>
      <point x="1002" y="970" type="line"/>
      <point x="159" y="63" type="line"/>
      <point x="1038" y="63" type="line"/>
      <point x="1038" y="0.0" type="line"/>
    </contour>
  </outline>
</glyph>
<glyph name="braceleft" format="2">
  <advance width="622"/>
  <unicode hex="007B"/>
  <outline>
    <contour>
      <point x="641.076923076923" y="-312.0" type="line"/>
      <point x="404.46923076923076" y="-312.7692307692308"/>
      <point x="171.8969230769231" y="-70.55076923076925"/>
      <point x="228.76461538461535" y="133.30769230769232" type="qcurve" smooth="yes"/>
      <point x="282.62615384615384" y="331.7692307692308" type="line" smooth="yes"/>
      <point x="315.9507692307692" y="458.6707692307692"/>
      <point x="166.61846153846156" y="543.6200000000001"/>
      <point x="42.66461538461539" y="543.6200000000001" type="qcurve"/>
      <point x="42.66461538461539" y="604.3799999999999" type="line"/>
      <point x="166.61846153846156" y="604.3799999999999"/>
      <point x="315.9507692307692" y="689.3292307692305"/>
      <point x="282.62615384615384" y="816.2307692307692" type="qcurve" smooth="yes"/>
      <point x="228.76461538461535" y="1014.6923076923077" type="line" smooth="yes"/>
      <point x="174.27692307692308" y="1206.9907692307693"/>
      <point x="392.90923076923076" y="1460.923076923077"/>
      <point x="641.076923076923" y="1460.0" type="qcurve"/>
      <point x="641.076923076923" y="1399.7276923076925" type="line"/>
      <point x="416.1092307692308" y="1394.98"/>
      <point x="253.47692307692307" y="1185.0415384615385"/>
      <point x="301.50769230769225" y="1012.4615384615387" type="qcurve" smooth="yes"/>
      <point x="356.2923076923076" y="814.0" type="line" smooth="yes"/>
      <point x="379.56923076923084" y="729.9876923076923"/>
      <point x="297.4153846153847" y="596.7692307692307"/>
      <point x="200.53076923076924" y="574.0" type="qcurve"/>
      <point x="297.5692307692309" y="551.0769230769231"/>
      <point x="378.35076923076934" y="419.00615384615384"/>
      <point x="356.2923076923076" y="334.0" type="qcurve" smooth="yes"/>
      <point x="301.50769230769225" y="135.53846153846158" type="line" smooth="yes"/>
      <point x="250.75692307692304" y="-49.69846153846155"/>
      <point x="427.3615384615385" y="-245.88307692307689"/>
      <point x="641.076923076923" y="-251.72769230769225" type="qcurve"/>
    </contour>
  </outline>
</glyph>
<glyph name="bar" format="2">
  <advance width="509"/>
  <unicode hex="007C"/>
  <outline>
    <contour>
      <point x="222.87230769230771" y="-416.0" type="line"/>
      <point x="222.87230769230771" y="1382.1538461538462" type="line"/>
      <point x="286.1769230769231" y="1382.1538461538462" type="line"/>
      <point x="286.1769230769231" y="-416.0" type="line"/>
    </contour>
  </outline>
</glyph>
<glyph name="twosuperior" format="2">
  <advance width="713"/>
  <unicode hex="00B2"/>
  <outline>
    <contour>
      <point x="103.46153846153847" y="697.0" type="line"/>
      <point x="103.46153846153847" y="786.5384615384615" type="line"/>
      <point x="353.6153846153846" y="1028.1538461538462" type="line" smooth="yes"/>
      <point x="419.7692307692308" y="1091.923076923077"/>
      <point x="513.3076923076923" y="1210.461538461538"/>
      <point x="513.3076923076923" y="1273.0" type="qcurve" smooth="yes"/>
      <point x="513.3076923076923" y="1330.230769230769"/>
      <point x="435.4615384615384" y="1404.230769230769"/>
      <point x="348.7692307692307" y="1404.230769230769" type="qcurve" smooth="yes"/>
      <point x="258.8461538461538" y="1404.230769230769"/>
      <point x="170.30769230769232" y="1321.9230769230767"/>
      <point x="172.2307692307692" y="1225.6923076923078" type="qcurve"/>
      <point x="86.38461538461539" y="1225.6923076923078" type="line"/>
      <point x="84.46153846153845" y="1354.8461538461538"/>
      <point x="223.07692307692307" y="1487.0"/>
      <point x="346.6153846153845" y="1487.0" type="qcurve" smooth="yes"/>
      <point x="471.38461538461536" y="1487.0"/>
      <point x="604.9230769230769" y="1370.076923076923"/>
      <point x="604.9230769230769" y="1273.1538461538464" type="qcurve" smooth="yes"/>
      <point x="604.9230769230769" y="1175.6153846153845"/>
      <point x="469.2307692307693" y="1026.7692307692307"/>
      <point x="384.0" y="946.076923076923" type="qcurve" smooth="yes"/>
      <point x="210.3846153846154" y="780.3846153846155" type="line"/>
      <point x="626.6923076923077" y="780.3846153846155" type="line"/>
      <point x="626.6923076923077" y="697.0" type="line"/>
    </contour>
  </outline>
</glyph>
<glyph name="cedilla" format="2">
  <advance width="1024"/>
  <unicode hex="00B8"/>
  <outline>
    <contour>
      <point x="440.0" y="42.0" type="line"/>
      <point x="527.4615384615385" y="41.07692307692308" type="line"/>
      <point x="499.46153846153845" y="-53.92307692307692" type="line"/>
      <point x="519.5384615384615" y="-63.92307692307692"/>
      <point x="659.3846153846154" y="-139.0"/>
      <point x="659.3846153846154" y="-226.0" type="qcurve" smooth="yes"/>
      <point x="659.3846153846154" y="-319.0"/>
      <point x="485.38461538461536" y="-435.0"/>
      <point x="320.3076923076923" y="-435.0" type="qcurve"/>
      <point x="313.3076923076923" y="-350.15384615384613" type="line"/>
      <point x="444.53846153846155" y="-347.38461538461536"/>
      <point x="551.2307692307693" y="-281.0"/>
      <point x="551.2307692307693" y="-228.0" type="qcurve" smooth="yes"/>
      <point x="551.2307692307693" y="-179.0"/>
      <point x="483.0" y="-142.0"/>
      <point x="399.0" y="-135.0" type="qcurve"/>
    </contour>
  </outline>
</glyph>
<glyph name="ordmasculine" format="2">
  <advance width="932"/>
  <unicode hex="00BA"/>
  <guideline x="0" y="1975.0" angle="0" identifier="Jnt0R9CyOf"/>
  <outline>
    <contour>
      <point x="123.0" y="1043.0" type="qcurve"/>
      <point x="123.0" y="1124.0" type="line"/>
      <point x="123.0" y="1278.0"/>
      <point x="308.26176808266365" y="1477.0"/>
      <point x="465.0" y="1477.0" type="qcurve" smooth="yes"/>
      <point x="623.1928817451205" y="1477.0"/>
      <point x="807.0" y="1277.5040183696901"/>
      <point x="807.0" y="1124.0" type="qcurve"/>
      <point x="807.0" y="1043.0" type="line"/>
      <point x="807.0" y="889.4959816303098"/>
      <point x="623.4764638346725" y="691.0"/>
      <point x="467.0" y="691.0" type="qcurve" smooth="yes"/>
      <point x="308.61423650975877" y="691.0"/>
      <point x="123.0" y="889.247990815155"/>
    </contour>
    <contour>
      <point x="286.0" y="1124.0" type="qcurve"/>
      <point x="286.0" y="1043.0" type="line"/>
      <point x="286.0" y="951.9173363949486"/>
      <point x="375.38576349024123" y="830.0"/>
      <point x="467.0" y="830.0" type="qcurve" smooth="yes"/>
      <point x="555.6417910447759" y="830.0"/>
      <point x="645.0" y="951.9173363949486"/>
      <point x="645.0" y="1043.0" type="qcurve"/>
      <point x="645.0" y="1124.0" type="line"/>
      <point x="645.0" y="1212.6417910447765"/>
      <point x="555.5510907003446" y="1336.0"/>
      <point x="465.0" y="1336.0" type="qcurve" smooth="yes"/>
      <point x="374.4489092996556" y="1336.0"/>
      <point x="286.0" y="1212.6417910447765"/>
    </contour>
  </outline>
</glyph>
<glyph name="breve" format="2">
  <advance width="1024"/>
  <unicode hex="02D8"/>
  <anchor x="429.0" y="1606.0" name="mkmktop_acc"/>
  <outline>
    <contour>
      <point x="768.7692307692307" y="1501.384615384615" type="qcurve"/>
      <point x="825.9230769230769" y="1470.461538461538" type="line"/>
      <point x="791.846153846154" y="1356.692307692308"/>
      <point x="627.9230769230769" y="1197.076923076923"/>
      <point x="512.0769230769231" y="1197.076923076923" type="qcurve" smooth="yes"/>
      <point x="406.46153846153845" y="1197.076923076923"/>
      <point x="237.46153846153845" y="1339.0"/>
      <point x="198.23076923076923" y="1471.461538461538" type="qcurve"/>
      <point x="261.6153846153845" y="1501.384615384615" type="line"/>
      <point x="299.38461538461536" y="1405.615384615385"/>
      <point x="427.61538461538464" y="1288.1538461538462"/>
      <point x="513.0769230769231" y="1288.1538461538462" type="qcurve" smooth="yes"/>
      <point x="597.0769230769231" y="1288.1538461538462"/>
      <point x="729.0769230769229" y="1402.5384615384614"/>
    </contour>
  </outline>
</glyph>
<glyph name="dotaccent" format="2">
  <advance width="1024"/>
  <unicode hex="02D9"/>
  <anchor x="250.0" y="1572.0" name="mkmktop_acc"/>
  <outline>
    <contour>
      <point x="423.3846153846155" y="1312.384615384615" type="qcurve" smooth="yes"/>
      <point x="423.3846153846155" y="1344.3846153846155"/>
      <point x="471.84615384615375" y="1398.8461538461538"/>
      <point x="512.0" y="1398.8461538461538" type="qcurve" smooth="yes"/>
      <point x="551.1538461538462" y="1398.8461538461538"/>
      <point x="600.6153846153846" y="1344.3846153846155"/>
      <point x="600.6153846153846" y="1312.384615384615" type="qcurve" smooth="yes"/>
      <point x="600.6153846153846" y="1279.461538461538"/>
      <point x="551.1538461538462" y="1226.0"/>
      <point x="512.0" y="1226.0" type="qcurve" smooth="yes"/>
      <point x="471.84615384615375" y="1226.0"/>
      <point x="423.3846153846155" y="1279.461538461538"/>
    </contour>
  </outline>
</glyph>
<glyph name="ogonek" format="2">
  <advance width="1024"/>
  <unicode hex="02DB"/>
  <outline>
    <contour>
      <point x="514.5384615384615" y="47.76923076923077" type="qcurve"/>
      <point x="551.6153846153846" y="9.23076923076923" type="line"/>
      <point x="482.0769230769231" y="-35.076923076923066"/>
      <point x="362.15384615384613" y="-166.23076923076923"/>
      <point x="362.15384615384613" y="-231.23076923076923" type="qcurve" smooth="yes"/>
      <point x="362.15384615384613" y="-282.6923076923077"/>
      <point x="431.3076923076922" y="-321.7692307692308"/>
      <point x="483.53846153846155" y="-321.7692307692308" type="qcurve" smooth="yes"/>
      <point x="535.0" y="-321.7692307692308"/>
      <point x="600.846153846154" y="-302.7692307692308"/>
      <point x="615.846153846154" y="-294.7692307692308" type="qcurve"/>
      <point x="628.0" y="-362.3076923076923" type="line"/>
      <point x="603.0" y="-377.3076923076923"/>
      <point x="526.0" y="-406.3076923076923"/>
      <point x="467.0" y="-406.3076923076923" type="qcurve" smooth="yes"/>
      <point x="386.0" y="-406.3076923076923"/>
      <point x="275.0" y="-323.0769230769231"/>
      <point x="275.0" y="-243.0" type="qcurve" smooth="yes"/>
      <point x="275.0" y="-163.0"/>
      <point x="385.0" y="-19.846153846153847"/>
    </contour>
  </outline>
</glyph>
<glyph name="hungarumlaut" format="2">
  <advance width="1024"/>
  <unicode hex="02DD"/>
  <outline>
    <contour>
      <point x="785.1538461538462" y="1122.3846153846155" type="line"/>
      <point x="1005.0" y="1451.2307692307693" type="line"/>
      <point x="1168.6153846153845" y="1504.7692307692307" type="line"/>
      <point x="938.4615384615385" y="1175.923076923077" type="line"/>
    </contour>
    <contour>
      <point x="-37.615384615384585" y="1122.3846153846155" type="line"/>
      <point x="74.23076923076917" y="1451.2307692307693" type="line"/>
      <point x="229.76923076923072" y="1504.7692307692307" type="line"/>
      <point x="88.3846153846154" y="1175.923076923077" type="line"/>
    </contour>
  </outline>
</glyph>
<glyph name="horncomb" format="2">
  <advance width="1024"/>
  <unicode hex="031B"/>
  <outline>
    <contour>
      <point x="0.0" y="1047.8461538461538" type="line"/>
      <point x="84.0" y="1047.8461538461538" type="line" smooth="yes"/>
      <point x="132.0" y="1047.8461538461538"/>
      <point x="213.23076923076923" y="1081.8461538461538"/>
      <point x="213.23076923076923" y="1133.8461538461538" type="qcurve" smooth="yes"/>
      <point x="213.23076923076923" y="1179.8461538461538"/>
      <point x="192.84615384615384" y="1254.6923076923076"/>
      <point x="181.0" y="1288.8461538461538" type="qcurve"/>
      <point x="262.38461538461536" y="1288.8461538461538" type="line"/>
      <point x="282.3846153846155" y="1255.8461538461538"/>
      <point x="306.15384615384625" y="1164.8461538461538"/>
      <point x="306.15384615384625" y="1109.1538461538462" type="qcurve" smooth="yes"/>
      <point x="306.15384615384625" y="1021.1538461538463"/>
      <point x="205.84615384615384" y="964.769230769231"/>
      <point x="144.0" y="964.769230769231" type="qcurve" smooth="yes"/>
      <point x="98.0" y="964.769230769231"/>
      <point x="26.0" y="967.5384615384615"/>
      <point x="0.0" y="973.769230769231" type="qcurve"/>
    </contour>
  </outline>
</glyph>
<glyph name="fraction" format="2">
  <advance width="342"/>
  <unicode hex="2044"/>
  <guideline x="0" y="901.0" angle="0" identifier="tcCoNUQTdD"/>
  <guideline x="0" y="555.0" angle="0" identifier="0lx51aIE0d"/>
  <outline>
    <contour>
      <point x="704.4307692307694" y="1422.6184615384614" type="line"/>
      <point x="-310.8200000000001" y="-5.296923076923078" type="line"/>
      <point x="-371.0015384615385" y="31.02153846153847" type="line"/>
      <point x="646.9215384615383" y="1468.3415384615384" type="line"/>
    </contour>
  </outline>
</glyph>
<glyph name="foursuperior" format="2">
  <advance width="751"/>
  <unicode hex="2074"/>
  <outline>
    <contour>
      <point x="79.46153846153847" y="880.0" type="line"/>
      <point x="72.46153846153845" y="963.5384615384615" type="line"/>
      <point x="459.6923076923076" y="1496.0" type="line"/>
      <point x="556.0000000000001" y="1496.0" type="line"/>
      <point x="408.2307692307692" y="1297.6923076923078" type="line"/>
      <point x="156.61538461538464" y="954.6153846153846" type="line"/>
      <point x="700.0" y="954.6153846153846" type="line"/>
      <point x="700.0" y="880.0" type="line"/>
    </contour>
    <contour>
      <point x="573.5384615384614" y="1496.0" type="line"/>
      <point x="573.5384615384614" y="697.0" type="line"/>
      <point x="490.38461538461536" y="697.0" type="line"/>
      <point x="490.38461538461536" y="1496.0" type="line"/>
    </contour>
  </outline>
</glyph>
<glyph name="brevecombstack.case" format="2">
  <advance width="1024"/>
  <outline>
    <contour>
      <point x="798.9230769230769" y="1902.6153846153845" type="qcurve"/>
      <point x="876.0769230769231" y="1855.076923076923" type="line"/>
      <point x="828.0" y="1747.7692307692312"/>
      <point x="646.230769230769" y="1610.0"/>
      <point x="512.0" y="1610.0" type="qcurve" smooth="yes"/>
      <point x="393.6923076923077" y="1610.0"/>
      <point x="196.76923076923072" y="1743.1538461538462"/>
      <point x="148.92307692307693" y="1856.076923076923" type="qcurve"/>
      <point x="223.84615384615384" y="1911.8461538461538" type="line"/>
      <point x="270.2307692307692" y="1831.076923076923"/>
      <point x="417.7692307692308" y="1717.3076923076924"/>
      <point x="511.076923076923" y="1717.3076923076924" type="qcurve" smooth="yes"/>
      <point x="613.230769230769" y="1717.3076923076924"/>
      <point x="746.0769230769231" y="1806.7692307692312"/>
    </contour>
  </outline>
</glyph>
<glyph name="caroncomb.alt" format="2">
  <advance width="1024"/>
  <outline>
    <contour>
      <point x="413.6923076923077" y="1082.7692307692307" type="line"/>
      <point x="515.6923076923077" y="1471.7692307692307" type="line"/>
      <point x="634.6153846153846" y="1435.307692307692" type="line"/>
      <point x="481.6923076923077" y="1060.6923076923076" type="line"/>
    </contour>
  </outline>
</glyph>
<glyph name="caroncomb.case" format="2">
  <advance width="1024"/>
  <outline>
    <contour>
      <point x="464.6923076923078" y="1633.0" type="line"/>
      <point x="190.46153846153845" y="1973.0" type="line"/>
      <point x="296.53846153846143" y="1975.0" type="line"/>
      <point x="506.84615384615375" y="1731.0" type="line"/>
      <point x="711.1538461538462" y="1973.0" type="line"/>
      <point x="819.5384615384615" y="1973.0" type="line"/>
      <point x="553.3076923076925" y="1633.0" type="line"/>
    </contour>
  </outline>
</glyph>
<glyph name="cedillacomb.case" format="2">
  <advance width="1024"/>
  <outline>
    <contour>
      <point x="439.2307692307692" y="41.23076923076922" type="line"/>
      <point x="532.0769230769231" y="41.23076923076922" type="line"/>
      <point x="504.0769230769231" y="-75.46153846153847" type="line"/>
      <point x="553.5384615384615" y="-88.53846153846153"/>
      <point x="688.6153846153846" y="-171.30769230769232"/>
      <point x="688.6153846153846" y="-248.30769230769232" type="qcurve" smooth="yes"/>
      <point x="688.6153846153846" y="-342.076923076923"/>
      <point x="483.0769230769231" y="-476.38461538461536"/>
      <point x="318.0" y="-476.38461538461536" type="qcurve"/>
      <point x="311.0" y="-385.61538461538464" type="line"/>
      <point x="441.15384615384613" y="-382.9230769230769"/>
      <point x="565.0769230769231" y="-315.3076923076922"/>
      <point x="569.6923076923077" y="-250.30769230769232" type="qcurve" smooth="yes"/>
      <point x="573.3846153846156" y="-201.30769230769232"/>
      <point x="474.84615384615387" y="-156.92307692307688"/>
      <point x="400.0769230769231" y="-149.92307692307693" type="qcurve"/>
    </contour>
  </outline>
</glyph>
<glyph name="dieresiscomb.case" format="2">
  <advance width="1024"/>
  <outline>
    <contour>
      <point x="196.46153846153845" y="1758.3846153846155" type="qcurve" smooth="yes"/>
      <point x="196.46153846153845" y="1799.538461538462"/>
      <point x="240.76923076923077" y="1843.7692307692312"/>
      <point x="282.0" y="1843.7692307692312" type="qcurve" smooth="yes"/>
      <point x="321.15384615384613" y="1843.7692307692312"/>
      <point x="367.53846153846155" y="1796.4615384615386"/>
      <point x="367.53846153846155" y="1758.3846153846155" type="qcurve" smooth="yes"/>
      <point x="367.53846153846155" y="1718.2307692307693"/>
      <point x="324.2307692307692" y="1674.0"/>
      <point x="282.0" y="1674.0" type="qcurve" smooth="yes"/>
      <point x="242.84615384615384" y="1674.0"/>
      <point x="196.46153846153845" y="1720.3076923076924"/>
    </contour>
    <contour>
      <point x="656.4615384615385" y="1758.3846153846155" type="qcurve" smooth="yes"/>
      <point x="656.4615384615385" y="1799.538461538462"/>
      <point x="700.7692307692307" y="1843.7692307692312"/>
      <point x="742.0" y="1843.7692307692312" type="qcurve" smooth="yes"/>
      <point x="781.1538461538462" y="1843.7692307692312"/>
      <point x="827.5384615384615" y="1796.4615384615386"/>
      <point x="827.5384615384615" y="1758.3846153846155" type="qcurve" smooth="yes"/>
      <point x="827.5384615384615" y="1718.2307692307693"/>
      <point x="784.2307692307693" y="1674.0"/>
      <point x="742.0" y="1674.0" type="qcurve" smooth="yes"/>
      <point x="702.8461538461538" y="1674.0"/>
      <point x="656.4615384615385" y="1720.3076923076924"/>
    </contour>
  </outline>
</glyph>
<glyph name="dollar.rvrn" format="2">
  <advance width="1027"/>
  <outline>
    <contour>
      <point x="14.615384615384619" y="410.53846153846155" type="qcurve" smooth="yes"/>
      <point x="14.384615384615387" y="423.53846153846155" type="line"/>
      <point x="84.04923076923077" y="423.53846153846155" type="line"/>
      <point x="84.20307692307694" y="411.2307692307692" type="line" smooth="yes"/>
      <point x="86.3569230769231" y="242.62923076923076"/>
      <point x="329.09230769230766" y="60.26000000000001"/>
      <point x="549.8323076923076" y="60.336923076923085" type="qcurve" smooth="yes"/>
      <point x="763.4553846153846" y="60.413846153846166"/>
      <point x="999.530769230769" y="237.6338461538461"/>
      <point x="999.530769230769" y="368.0661538461539" type="qcurve" smooth="yes"/>
      <point x="999.530769230769" y="491.50615384615384"/>
      <point x="821.7369230769231" y="642.5569230769231"/>
      <point x="538.073846153846" y="712.3215384615385" type="qcurve" smooth="yes"/>
      <point x="260.0015384615385" y="782.4061538461535"/>
      <point x="49.687692307692316" y="953.7184615384616"/>
      <point x="49.687692307692316" y="1102.9338461538462" type="qcurve" smooth="yes"/>
      <point x="49.687692307692316" y="1246.5953846153843"/>
      <point x="292.03846153846155" y="1457.8461538461538"/>
      <point x="535.196923076923" y="1457.8461538461538" type="qcurve" smooth="yes"/>
      <point x="763.8707692307693" y="1457.8461538461538"/>
      <point x="1033.2323076923078" y="1214.26"/>
      <point x="1034.1553846153847" y="1053.8461538461538" type="qcurve" smooth="yes"/>
      <point x="1034.309230769231" y="1040.7692307692307" type="line"/>
      <point x="962.7215384615384" y="1040.7692307692307" type="line"/>
      <point x="962.5676923076923" y="1053.4615384615383" type="line" smooth="yes"/>
      <point x="961.6446153846153" y="1198.1523076923077"/>
      <point x="747.52" y="1395.663076923077"/>
      <point x="535.1199999999999" y="1395.663076923077" type="qcurve" smooth="yes"/>
      <point x="321.38" y="1395.663076923077"/>
      <point x="118.76923076923076" y="1233.7830769230768"/>
      <point x="118.76923076923076" y="1102.9338461538462" type="qcurve" smooth="yes"/>
      <point x="118.76923076923076" y="989.0769230769231"/>
      <point x="314.25076923076927" y="843.6092307692307"/>
      <point x="600.4923076923077" y="771.9784615384616" type="qcurve" smooth="yes"/>
      <point x="870.7676923076924" y="705.2661538461538"/>
      <point x="1070.4584615384615" y="525.5246153846156"/>
      <point x="1070.4584615384615" y="368.0661538461539" type="qcurve" smooth="yes"/>
      <point x="1070.4584615384615" y="214.40461538461545"/>
      <point x="795.3030769230769" y="-1.8461538461538463"/>
      <point x="549.8323076923076" y="-1.8461538461538463" type="qcurve" smooth="yes"/>
      <point x="306.4907692307692" y="-1.8461538461538463"/>
      <point x="16.615384615384617" y="227.65076923076927"/>
    </contour>
    <contour>
      <point x="510.6446153846154" y="-150.0" type="line"/>
      <point x="510.6446153846154" y="44.53846153846153" type="line"/>
      <point x="572.5830769230766" y="44.53846153846153" type="line"/>
      <point x="572.5830769230766" y="27.615384615384606" type="line"/>
      <point x="573.6523076923078" y="18.23076923076923" type="line"/>
      <point x="573.6523076923078" y="-150.0" type="line"/>
    </contour>
    <contour>
      <point x="510.8676923076923" y="1411.5384615384614" type="line"/>
      <point x="510.8676923076923" y="1428.2307692307697" type="line"/>
      <point x="508.8753846153845" y="1437.6153846153845" type="line"/>
      <point x="508.8753846153845" y="1606.0" type="line"/>
      <point x="571.8061538461538" y="1606.0" type="line"/>
      <point x="571.8061538461538" y="1411.5384615384614" type="line"/>
    </contour>
  </outline>
</glyph>
<glyph name="dotaccentcombstack.case" format="2">
  <advance width="1024"/>
  <outline>
    <contour>
      <point x="422.38461538461536" y="1762.4615384615386" type="qcurve" smooth="yes"/>
      <point x="422.38461538461536" y="1804.692307692308"/>
      <point x="468.6923076923077" y="1850.0"/>
      <point x="512.0" y="1850.0" type="qcurve" smooth="yes"/>
      <point x="552.2307692307693" y="1850.0"/>
      <point x="601.6153846153846" y="1801.615384615385"/>
      <point x="601.6153846153846" y="1762.4615384615386" type="qcurve" smooth="yes"/>
      <point x="601.6153846153846" y="1719.3076923076924"/>
      <point x="555.3076923076923" y="1674.0"/>
      <point x="512.0" y="1674.0" type="qcurve" smooth="yes"/>
      <point x="471.7692307692308" y="1674.0"/>
      <point x="422.38461538461536" y="1722.3846153846155"/>
    </contour>
  </outline>
</glyph>
<glyph name="horncomb.case" format="2">
  <advance width="1024"/>
  <outline>
    <contour>
      <point x="382.0" y="1513.3692307692306" type="line"/>
      <point x="455.0" y="1513.3692307692306" type="line" smooth="yes"/>
      <point x="518.0" y="1513.3692307692306"/>
      <point x="648.3846153846154" y="1544.3692307692306"/>
      <point x="648.3846153846154" y="1601.3692307692306" type="qcurve" smooth="yes"/>
      <point x="648.3846153846154" y="1642.3692307692306"/>
      <point x="637.3846153846154" y="1715.3692307692306"/>
      <point x="628.3846153846154" y="1751.3692307692306" type="qcurve"/>
      <point x="736.4153846153846" y="1751.3692307692306" type="line"/>
      <point x="751.5692307692307" y="1719.4461538461537"/>
      <point x="780.9538461538459" y="1630.676923076923"/>
      <point x="780.9538461538459" y="1571.6769230769228" type="qcurve" smooth="yes"/>
      <point x="780.9538461538459" y="1502.1384615384613"/>
      <point x="616.769230769231" y="1409.6092307692306"/>
      <point x="530.0" y="1409.6092307692306" type="qcurve" smooth="yes"/>
      <point x="484.0" y="1409.6092307692306"/>
      <point x="408.0" y="1424.1353846153847"/>
      <point x="382.0" y="1435.6615384615386" type="qcurve"/>
    </contour>
  </outline>
</glyph>
<glyph name="jdotless" format="2">
  <advance width="402"/>
  <outline>
    <contour>
      <point x="-116.39692307692307" y="-413.2276923076922" type="qcurve"/>
      <point x="-116.39692307692307" y="-337.79076923076923" type="line"/>
      <point x="-97.24923076923075" y="-344.00923076923067"/>
      <point x="-32.086153846153834" y="-357.7661538461538"/>
      <point x="-3.3199999999999896" y="-357.7661538461538" type="qcurve" smooth="yes"/>
      <point x="73.7846153846154" y="-357.7661538461538"/>
      <point x="161.30769230769232" y="-252.5624615384616"/>
      <point x="161.30769230769232" y="-131.23076923076923" type="qcurve" smooth="yes"/>
      <point x="161.30769230769232" y="1041.3846153846155" type="line"/>
      <point x="243.52615384615385" y="1041.3846153846155" type="line"/>
      <point x="243.52615384615385" y="-95.07692307692307" type="line" smooth="yes"/>
      <point x="243.52615384615385" y="-273.0"/>
      <point x="124.22331983805668" y="-436.0"/>
      <point x="10.824615384615392" y="-436.0" type="qcurve" smooth="yes"/>
      <point x="-23.094925373134313" y="-436.0"/>
      <point x="-96.33461278264836" y="-420.69703845859715"/>
    </contour>
  </outline>
</glyph>
<glyph name="macroncomb.case" format="2">
  <advance width="1024"/>
  <outline>
    <contour>
      <point x="234.4615384615385" y="1674.0" type="line"/>
      <point x="234.4615384615385" y="1779.2307692307693" type="line"/>
      <point x="789.5384615384615" y="1779.2307692307693" type="line"/>
      <point x="789.5384615384615" y="1674.0" type="line"/>
    </contour>
  </outline>
</glyph>
<glyph name="ogonekcomb.case" format="2">
  <advance width="1024"/>
  <outline>
    <contour>
      <point x="244.07692307692307" y="-292.15384615384613" type="qcurve" smooth="yes"/>
      <point x="244.07692307692307" y="-203.15384615384616"/>
      <point x="352.6923076923077" y="-46.538461538461526"/>
      <point x="468.0" y="51.0" type="qcurve"/>
      <point x="524.230769230769" y="11.076923076923077" type="line"/>
      <point x="416.3076923076923" y="-91.07692307692307"/>
      <point x="343.15384615384625" y="-197.15384615384616"/>
      <point x="343.15384615384625" y="-256.9230769230769" type="qcurve" smooth="yes"/>
      <point x="343.15384615384625" y="-323.38461538461536"/>
      <point x="423.46153846153845" y="-396.84615384615375"/>
      <point x="500.3846153846155" y="-396.84615384615375" type="qcurve" smooth="yes"/>
      <point x="570.4615384615385" y="-396.84615384615375"/>
      <point x="670.1538461538462" y="-350.84615384615375"/>
      <point x="732.1538461538462" y="-302.9230769230769" type="qcurve"/>
      <point x="767.9230769230769" y="-357.0" type="line"/>
      <point x="719.2307692307693" y="-408.7692307692308"/>
      <point x="578.3076923076923" y="-474.84615384615375"/>
      <point x="478.0" y="-474.84615384615375" type="qcurve" smooth="yes"/>
      <point x="373.0" y="-474.84615384615375"/>
      <point x="244.07692307692307" y="-370.15384615384625"/>
    </contour>
  </outline>
</glyph>
<glyph name="tildecombstack.case" format="2">
  <advance width="1024"/>
  <outline>
    <contour>
      <point x="186.84615384615384" y="1751.076923076923" type="line"/>
      <point x="226.8461538461539" y="1823.0769230769226"/>
      <point x="333.3076923076923" y="1897.076923076923"/>
      <point x="389.2307692307692" y="1897.076923076923" type="qcurve" smooth="yes"/>
      <point x="435.3076923076923" y="1897.076923076923"/>
      <point x="526.7692307692307" y="1850.1538461538462"/>
      <point x="562.769230769231" y="1824.1538461538462" type="qcurve" smooth="yes"/>
      <point x="592.769230769231" y="1802.1538461538462"/>
      <point x="653.230769230769" y="1761.615384615385"/>
      <point x="685.230769230769" y="1761.615384615385" type="qcurve" smooth="yes"/>
      <point x="725.230769230769" y="1761.615384615385"/>
      <point x="787.9230769230769" y="1821.923076923077"/>
      <point x="811.6923076923077" y="1859.076923076923" type="qcurve"/>
      <point x="868.769230769231" y="1805.0" type="line"/>
      <point x="836.7692307692307" y="1731.0"/>
      <point x="732.0" y="1657.0"/>
      <point x="679.9230769230769" y="1657.0" type="qcurve" smooth="yes"/>
      <point x="632.7692307692307" y="1657.0"/>
      <point x="530.4615384615385" y="1710.4615384615386"/>
      <point x="500.46153846153845" y="1730.4615384615386" type="qcurve" smooth="yes"/>
      <point x="469.46153846153857" y="1751.4615384615386"/>
      <point x="406.38461538461536" y="1794.0"/>
      <point x="382.38461538461536" y="1794.0" type="qcurve" smooth="yes"/>
      <point x="346.38461538461536" y="1794.0"/>
      <point x="266.923076923077" y="1736.2307692307693"/>
      <point x="247.92307692307693" y="1706.2307692307693" type="qcurve"/>
    </contour>
  </outline>
</glyph>
